<svg xmlns="http://www.w3.org/2000/svg" shape-rendering="geometricPrecision" text-rendering="geometricPrecision" image-rendering="optimizeQuality" fill-rule="evenodd" clip-rule="evenodd" viewBox="0 0 512 420.16"><path fill-rule="nonzero" d="M74.32 0h363.36C478.55 0 512 33.46 512 74.32v271.53c0 40.81-33.5 74.31-74.32 74.31H74.32C33.44 420.16 0 386.69 0 345.85V74.32C0 33.41 33.41 0 74.32 0zm267.97 176.77h-31.68v101.58h-43.68V176.77h-31.68v-34.96h107.04v34.96zm-169.3 101.58V141.81h43.7v136.54h-43.7zM437.68 35.93H74.32c-21.08 0-38.39 17.31-38.39 38.39v271.53c0 21.1 17.25 38.39 38.39 38.39h363.36c21.16 0 38.39-17.24 38.39-38.39V74.32c0-21.09-17.29-38.39-38.39-38.39z"/></svg>